<svg width="100%" height="100%" id="svg" viewBox="0 0 1440 400" xmlns="http://www.w3.org/2000/svg"
     class="transition duration-300 ease-in-out delay-150">
    <path d="M 0,400 C 0,400 0,133 0,133 C 87.57894736842107,142.91387559808612 175.15789473684214,152.82775119617227 278,144 C 380.84210526315786,135.17224880382773 498.9473684210526,107.6028708133971 600,109 C 701.0526315789474,110.3971291866029 785.0526315789474,140.76076555023926 863,151 C 940.9473684210526,161.23923444976074 1012.8421052631579,151.35406698564591 1108,145 C 1203.157894736842,138.64593301435409 1321.578947368421,135.82296650717706 1440,133 C 1440,133 1440,400 1440,400 Z"
          stroke="none" stroke-width="0" fill="#8ed1fc" fill-opacity="0.53"
          class="transition-all duration-300 ease-in-out delay-150 path-0"></path>
    <path d="M 0,400 C 0,400 0,266 0,266 C 83.07177033492823,259.33014354066984 166.14354066985646,252.66028708133973 252,258 C 337.85645933014354,263.33971291866027 426.4976076555024,280.688995215311 525,281 C 623.5023923444976,281.311004784689 731.8660287081341,264.5837320574162 831,260 C 930.1339712918659,255.41626794258374 1020.0382775119617,262.97607655502395 1120,266 C 1219.9617224880383,269.02392344497605 1329.9808612440193,267.511961722488 1440,266 C 1440,266 1440,400 1440,400 Z"
          stroke="none" stroke-width="0" fill="#8ed1fc" fill-opacity="1"
          class="transition-all duration-300 ease-in-out delay-150 path-1"></path>
</svg>
